<svg width="22" height="22" viewBox="0 0 22 22" fill="none" xmlns="http://www.w3.org/2000/svg">
<path d="M22 16.8003C22 16.4444 21.7114 16.1558 21.3555 16.1558H20.6677V4.7874C21.4178 4.52134 21.9567 3.80494 21.9567 2.96476V0.644512C21.9567 0.28857 21.6681 0 21.3122 0H0.687781C0.331838 0 0.0432683 0.28857 0.0432683 0.644512V2.9648C0.0432683 3.80499 0.582124 4.52138 1.33229 4.78744V16.1558H0.644512C0.28857 16.1558 0 16.4444 0 16.8003C0 17.0968 0.2004 17.3458 0.472943 17.421V21.3548C0.472943 21.7107 0.761513 21.9993 1.11746 21.9993C1.4734 21.9993 1.76197 21.7107 1.76197 21.3548V17.4448H20.3669V21.3548C20.3669 21.7107 20.6555 21.9993 21.0114 21.9993C21.3673 21.9993 21.6559 21.7107 21.6559 21.3548V17.3703C21.8604 17.2623 22 17.0477 22 16.8003ZM20.6677 2.9648C20.6677 3.32018 20.3785 3.60927 20.0232 3.60927C19.6678 3.60927 19.3786 3.32014 19.3786 2.9648V1.28902H20.6677V2.9648ZM18.0896 2.9648C18.0896 3.32018 17.8005 3.60927 17.4451 3.60927C17.0901 3.60927 16.8012 3.32074 16.8006 2.96592L16.8006 2.9648V1.28902H18.0896V2.9648ZM14.2226 1.28902H15.5115V2.9648L15.5116 2.96592C15.511 3.32079 15.2221 3.60927 14.8671 3.60927C14.5117 3.60927 14.2226 3.32014 14.2226 2.9648V1.28902ZM12.9336 2.9648C12.9336 3.32018 12.6444 3.60927 12.289 3.60927C11.9338 3.60927 11.6448 3.32044 11.6445 2.96536V1.28902H12.9336V2.9648ZM9.06648 1.28902H10.3555V2.9648C10.3553 3.32006 10.0663 3.60927 9.711 3.60927C9.35561 3.60927 9.06648 3.32014 9.06648 2.9648V1.28902ZM7.77746 2.9648C7.77746 3.32018 7.48833 3.60927 7.13295 3.60927C6.77765 3.60927 6.48856 3.32031 6.48843 2.96506V1.28902H7.77746V2.9648ZM3.91039 1.28902H5.19941V2.9648C5.19924 3.32006 4.9102 3.60927 4.5549 3.60927C4.19951 3.60927 3.91039 3.32014 3.91039 2.9648V1.28902ZM1.33229 1.28902H2.62132V2.9648C2.62132 3.32018 2.33219 3.60927 1.97681 3.60927C1.62142 3.60927 1.33229 3.32014 1.33229 2.9648V1.28902ZM2.62132 4.7874C2.86142 4.70223 3.07982 4.5711 3.26583 4.40434C3.6082 4.71117 4.06 4.89825 4.55485 4.89825C5.04971 4.89825 5.50151 4.71117 5.84388 4.40434C6.18624 4.71117 6.63805 4.89825 7.1329 4.89825C7.62776 4.89825 8.07956 4.71117 8.42193 4.40434C8.76429 4.71117 9.2161 4.89825 9.71095 4.89825C10.2058 4.89825 10.6576 4.71117 11 4.40434C11.3423 4.71117 11.7941 4.89825 12.289 4.89825C12.7838 4.89825 13.2357 4.71117 13.578 4.40434C13.9204 4.71117 14.3722 4.89825 14.8671 4.89825C15.3619 4.89825 15.8137 4.71121 16.156 4.40438C16.4984 4.71121 16.9502 4.89825 17.4451 4.89825C17.9399 4.89825 18.3917 4.71117 18.7341 4.40434C18.9201 4.5711 19.1385 4.70223 19.3786 4.7874V16.1558H15.8982V13.7067C15.8982 12.1888 14.7514 10.9344 13.2789 10.7627C13.6806 10.2621 13.9217 9.62747 13.9217 8.93724C13.9217 7.32617 12.611 6.01545 10.9999 6.01545C9.38887 6.01545 8.07815 7.32617 8.07815 8.93724C8.07815 9.62747 8.31928 10.2621 8.72098 10.7627C7.24844 10.9344 6.10164 12.1888 6.10164 13.7067V16.1558H2.62127L2.62132 4.7874ZM9.36721 8.93724C9.36721 8.03694 10.0997 7.30447 11 7.30447C11.9003 7.30447 12.6327 8.03694 12.6327 8.93724C12.6327 9.83754 11.9003 10.57 11 10.57C10.0997 10.57 9.36721 9.83754 9.36721 8.93724ZM9.75392 12.0309H12.2461V13.5777H9.75392V12.0309ZM9.10941 14.8668H12.8906C13.2465 14.8668 13.5351 14.5782 13.5351 14.2222V12.143C14.1627 12.3854 14.6092 12.9947 14.6092 13.7067V16.1558H7.39071V13.7067C7.39071 12.9947 7.83727 12.3853 8.46485 12.143V14.2222C8.4649 14.5782 8.75347 14.8668 9.10941 14.8668Z" fill="#4F4F4F"/>
<path d="M17.617 20.0229C17.2616 20.0229 16.9725 19.7338 16.9725 19.3784C16.9725 19.0225 16.6839 18.7339 16.328 18.7339H5.80097C5.44503 18.7339 5.15646 19.0225 5.15646 19.3784C5.15646 19.7338 4.86733 20.0229 4.51194 20.0229C4.156 20.0229 3.86743 20.3115 3.86743 20.6674V21.3545C3.86743 21.7105 4.156 21.999 4.51194 21.999C4.86789 21.999 5.15646 21.7105 5.15646 21.3545V21.2015C5.70507 21.007 6.1405 20.5715 6.33501 20.0229H15.7939C15.9884 20.5715 16.4239 21.007 16.9725 21.2015V21.3545C16.9725 21.7105 17.2611 21.999 17.617 21.999C17.973 21.999 18.2615 21.7105 18.2615 21.3545V20.6674C18.2615 20.3115 17.973 20.0229 17.617 20.0229Z" fill="#4F4F4F"/>
</svg>
